<svg width="818" height="720" viewBox="0 0 818 720" fill="none" xmlns="http://www.w3.org/2000/svg">
<path d="M0.5 453.5C0.5 247.788 128.046 71.865 308.372 0.5H666.628C722.791 22.7268 773.835 55.0963 817.5 95.3499V719.5H79.4954C29.5393 643.031 0.5 551.658 0.5 453.5Z" fill="#131313"/>
<path d="M0.5 453.5C0.5 247.788 128.046 71.865 308.372 0.5H666.628C722.791 22.7268 773.835 55.0963 817.5 95.3499V719.5H79.4954C29.5393 643.031 0.5 551.658 0.5 453.5Z" fill="url(#paint0_linear_1_12)" fill-opacity="0.05"/>
<path d="M0.5 453.5C0.5 247.788 128.046 71.865 308.372 0.5H666.628C722.791 22.7268 773.835 55.0963 817.5 95.3499V719.5H79.4954C29.5393 643.031 0.5 551.658 0.5 453.5Z" stroke="#202020"/>
<defs>
<linearGradient id="paint0_linear_1_12" x1="563.5" y1="-72" x2="297" y2="769" gradientUnits="userSpaceOnUse">
<stop stop-color="white"/>
<stop offset="0.532089" stop-opacity="0.367865"/>
<stop offset="1" stop-opacity="0"/>
</linearGradient>
</defs>
</svg> 