<svg width="818" height="720" viewBox="0 0 818 720" fill="none" xmlns="http://www.w3.org/2000/svg">
<path d="M0.5 453.5C0.5 247.788 128.046 71.865 308.372 0.5H666.628C722.791 22.7268 773.835 55.0963 817.5 95.3499V719.5H79.4954C29.5393 643.031 0.5 551.658 0.5 453.5Z" fill="#131313"/>
<path d="M0.5 453.5C0.5 247.788 128.046 71.865 308.372 0.5H666.628C722.791 22.7268 773.835 55.0963 817.5 95.3499V719.5H79.4954C29.5393 643.031 0.5 551.658 0.5 453.5Z" fill="url(#paint0_linear_311_2)" fill-opacity="0.05"/>
<path d="M0.5 453.5C0.5 247.788 128.046 71.865 308.372 0.5H666.628C722.791 22.7268 773.835 55.0963 817.5 95.3499V719.5H79.4954C29.5393 643.031 0.5 551.658 0.5 453.5Z" stroke="#202020"/>
<path d="M817.5 649.105C802.551 674.575 784.772 698.185 764.594 719.5H202.406C136.76 650.152 96.5 556.528 96.5 453.5C96.5 239.766 269.766 66.5 483.5 66.5C625.873 66.5 750.291 143.381 817.5 257.895V649.105Z" fill="#151515"/>
<path d="M817.5 649.105C802.551 674.575 784.772 698.185 764.594 719.5H202.406C136.76 650.152 96.5 556.528 96.5 453.5C96.5 239.766 269.766 66.5 483.5 66.5C625.873 66.5 750.291 143.381 817.5 257.895V649.105Z" fill="url(#paint1_linear_311_2)" fill-opacity="0.05"/>
<path d="M817.5 649.105C802.551 674.575 784.772 698.185 764.594 719.5H202.406C136.76 650.152 96.5 556.528 96.5 453.5C96.5 239.766 269.766 66.5 483.5 66.5C625.873 66.5 750.291 143.381 817.5 257.895V649.105Z" stroke="white" stroke-opacity="0.09"/>
<path d="M817.5 649.105C802.551 674.575 784.772 698.185 764.594 719.5H202.406C136.76 650.152 96.5 556.528 96.5 453.5C96.5 239.766 269.766 66.5 483.5 66.5C625.873 66.5 750.291 143.381 817.5 257.895V649.105Z" stroke="#202020"/>
<path d="M783.5 450C783.5 568.507 714.672 670.938 614.809 719.5H353.191C253.328 670.938 184.5 568.507 184.5 450C184.5 284.591 318.591 150.5 484 150.5C649.409 150.5 783.5 284.591 783.5 450Z" fill="#171717"/>
<path d="M783.5 450C783.5 568.507 714.672 670.938 614.809 719.5H353.191C253.328 670.938 184.5 568.507 184.5 450C184.5 284.591 318.591 150.5 484 150.5C649.409 150.5 783.5 284.591 783.5 450Z" fill="url(#paint2_linear_311_2)" fill-opacity="0.05"/>
<path d="M783.5 450C783.5 568.507 714.672 670.938 614.809 719.5H353.191C253.328 670.938 184.5 568.507 184.5 450C184.5 284.591 318.591 150.5 484 150.5C649.409 150.5 783.5 284.591 783.5 450Z" stroke="white" stroke-opacity="0.09"/>
<path d="M783.5 450C783.5 568.507 714.672 670.938 614.809 719.5H353.191C253.328 670.938 184.5 568.507 184.5 450C184.5 284.591 318.591 150.5 484 150.5C649.409 150.5 783.5 284.591 783.5 450Z" stroke="#202020"/>
<circle cx="483.5" cy="450.5" r="212" fill="#191919"/>
<circle cx="483.5" cy="450.5" r="212" fill="url(#paint3_linear_311_2)" fill-opacity="0.05"/>
<circle cx="483.5" cy="450.5" r="212" stroke="white" stroke-opacity="0.09"/>
<circle cx="483.5" cy="450.5" r="212" stroke="#202020"/>
<defs>
<linearGradient id="paint0_linear_311_2" x1="563.5" y1="-72" x2="297" y2="769" gradientUnits="userSpaceOnUse">
<stop stop-color="white"/>
<stop offset="0.532089" stop-opacity="0.367865"/>
<stop offset="1" stop-opacity="0"/>
</linearGradient>
<linearGradient id="paint1_linear_311_2" x1="593.368" y1="0.59998" x2="345.586" y2="760.413" gradientUnits="userSpaceOnUse">
<stop stop-color="white"/>
<stop offset="0.532089" stop-opacity="0.367865"/>
<stop offset="1" stop-opacity="0"/>
</linearGradient>
<linearGradient id="paint2_linear_311_2" x1="597.325" y1="93" x2="372.99" y2="748.922" gradientUnits="userSpaceOnUse">
<stop stop-color="white"/>
<stop offset="0.532089" stop-opacity="0.367865"/>
<stop offset="1" stop-opacity="0"/>
</linearGradient>
<linearGradient id="paint3_linear_311_2" x1="563.772" y1="195.5" x2="389.671" y2="679.093" gradientUnits="userSpaceOnUse">
<stop stop-color="white"/>
<stop offset="0.532089" stop-opacity="0.367865"/>
<stop offset="1" stop-opacity="0"/>
</linearGradient>
</defs>
</svg>
