<svg width="30" height="30" viewBox="0 0 30 30" fill="none" xmlns="http://www.w3.org/2000/svg">
<path d="M20.0756 3.0675C20.4271 3.41912 20.6246 3.89594 20.6246 4.39313C20.6246 4.89031 20.4271 5.36714 20.0756 5.71875L10.7944 15L20.0756 24.2813C20.4172 24.6349 20.6062 25.1085 20.6019 25.6001C20.5976 26.0918 20.4004 26.562 20.0528 26.9097C19.7051 27.2573 19.2349 27.4545 18.7432 27.4588C18.2516 27.463 17.778 27.2741 17.4244 26.9325L6.8175 16.3256C6.46599 15.974 6.26852 15.4972 6.26852 15C6.26852 14.5028 6.46599 14.026 6.8175 13.6744L17.4244 3.0675C17.776 2.71599 18.2528 2.51853 18.75 2.51853C19.2472 2.51853 19.724 2.71599 20.0756 3.0675Z" fill="#525252"/>
</svg>
