<svg width="140" height="30" viewBox="0 0 140 30" fill="none" xmlns="http://www.w3.org/2000/svg">
<g id="Stars">
<g id="Star 5" filter="url(#filter0_d_1_170)">
<path d="M124.098 5.8541C124.697 4.01148 127.303 4.01148 127.902 5.8541L128.694 8.2918C128.962 9.11584 129.73 9.67376 130.596 9.67376H133.159C135.097 9.67376 135.902 12.153 134.335 13.2918L132.261 14.7984C131.56 15.3077 131.267 16.2104 131.535 17.0344L132.327 19.4721C132.926 21.3148 130.817 22.847 129.249 21.7082L127.176 20.2016C126.475 19.6923 125.525 19.6923 124.824 20.2016L122.751 21.7082C121.183 22.847 119.074 21.3148 119.673 19.4721L120.465 17.0344C120.733 16.2104 120.44 15.3077 119.739 14.7984L117.665 13.2918C116.098 12.153 116.903 9.67376 118.841 9.67376H121.404C122.27 9.67376 123.038 9.11584 123.306 8.2918L124.098 5.8541Z" fill="white"/>
</g>
<g id="Star 4" filter="url(#filter1_d_1_170)">
<path d="M96.0979 5.8541C96.6966 4.01148 99.3034 4.01148 99.9021 5.8541L100.694 8.2918C100.962 9.11584 101.73 9.67376 102.596 9.67376H105.159C107.097 9.67376 107.902 12.153 106.335 13.2918L104.261 14.7984C103.56 15.3077 103.267 16.2104 103.535 17.0344L104.327 19.4721C104.926 21.3148 102.817 22.847 101.249 21.7082L99.1756 20.2016C98.4746 19.6923 97.5254 19.6923 96.8244 20.2016L94.7508 21.7082C93.1834 22.847 91.0744 21.3148 91.6731 19.4721L92.4652 17.0344C92.7329 16.2104 92.4396 15.3077 91.7386 14.7984L89.665 13.2918C88.0976 12.153 88.9031 9.67376 90.8406 9.67376H93.4037C94.2702 9.67376 95.0381 9.11584 95.3058 8.2918L96.0979 5.8541Z" fill="white"/>
</g>
<g id="Star 3" filter="url(#filter2_d_1_170)">
<path d="M68.0979 5.8541C68.6966 4.01148 71.3034 4.01148 71.9021 5.8541L72.6942 8.2918C72.9619 9.11584 73.7298 9.67376 74.5963 9.67376H77.1594C79.0969 9.67376 79.9024 12.153 78.335 13.2918L76.2614 14.7984C75.5604 15.3077 75.2671 16.2104 75.5348 17.0344L76.3269 19.4721C76.9256 21.3148 74.8166 22.847 73.2492 21.7082L71.1756 20.2016C70.4746 19.6923 69.5254 19.6923 68.8244 20.2016L66.7508 21.7082C65.1834 22.847 63.0744 21.3148 63.6731 19.4721L64.4652 17.0344C64.7329 16.2104 64.4396 15.3077 63.7386 14.7984L61.665 13.2918C60.0976 12.153 60.9031 9.67376 62.8406 9.67376H65.4037C66.2702 9.67376 67.0381 9.11584 67.3058 8.2918L68.0979 5.8541Z" fill="white"/>
</g>
<g id="Star 2" filter="url(#filter3_d_1_170)">
<path d="M40.0979 5.8541C40.6966 4.01148 43.3034 4.01148 43.9021 5.8541L44.6942 8.2918C44.9619 9.11584 45.7298 9.67376 46.5963 9.67376H49.1594C51.0969 9.67376 51.9024 12.153 50.335 13.2918L48.2614 14.7984C47.5604 15.3077 47.2671 16.2104 47.5348 17.0344L48.3269 19.4721C48.9256 21.3148 46.8166 22.847 45.2492 21.7082L43.1756 20.2016C42.4746 19.6923 41.5254 19.6923 40.8244 20.2016L38.7508 21.7082C37.1834 22.847 35.0744 21.3148 35.6731 19.4721L36.4652 17.0344C36.7329 16.2104 36.4396 15.3077 35.7386 14.7984L33.665 13.2918C32.0976 12.153 32.9031 9.67376 34.8406 9.67376H37.4037C38.2702 9.67376 39.0381 9.11584 39.3058 8.2918L40.0979 5.8541Z" fill="white"/>
</g>
<g id="Star 1" filter="url(#filter4_d_1_170)">
<path d="M15.0979 5.8541C15.6966 4.01148 18.3034 4.01148 18.9021 5.8541L19.6942 8.2918C19.9619 9.11584 20.7298 9.67376 21.5963 9.67376H24.1594C26.0969 9.67376 26.9024 12.153 25.335 13.2918L23.2614 14.7984C22.5604 15.3077 22.2671 16.2104 22.5348 17.0344L23.3269 19.4721C23.9256 21.3148 21.8166 22.847 20.2492 21.7082L18.1756 20.2016C17.4746 19.6923 16.5254 19.6923 15.8244 20.2016L13.7508 21.7082C12.1834 22.847 10.0744 21.3148 10.6731 19.4721L11.4652 17.0344C11.7329 16.2104 11.4396 15.3077 10.7386 14.7984L8.665 13.2918C7.09757 12.153 7.90313 9.67376 9.84057 9.67376H12.4037C13.2702 9.67376 14.0381 9.11584 14.3058 8.2918L15.0979 5.8541Z" fill="white"/>
</g>
</g>
<defs>
<filter id="filter0_d_1_170" x="109.837" y="3.47211" width="26.3265" height="25.6271" filterUnits="userSpaceOnUse" color-interpolation-filters="sRGB">
<feFlood flood-opacity="0" result="BackgroundImageFix"/>
<feColorMatrix in="SourceAlpha" type="matrix" values="0 0 0 0 0 0 0 0 0 0 0 0 0 0 0 0 0 0 127 0" result="hardAlpha"/>
<feOffset dx="-3" dy="3"/>
<feGaussianBlur stdDeviation="2"/>
<feComposite in2="hardAlpha" operator="out"/>
<feColorMatrix type="matrix" values="0 0 0 0 0 0 0 0 0 0 0 0 0 0 0 0 0 0 0.25 0"/>
<feBlend mode="normal" in2="BackgroundImageFix" result="effect1_dropShadow_1_170"/>
<feBlend mode="normal" in="SourceGraphic" in2="effect1_dropShadow_1_170" result="shape"/>
</filter>
<filter id="filter1_d_1_170" x="81.8367" y="3.47211" width="26.3265" height="25.6271" filterUnits="userSpaceOnUse" color-interpolation-filters="sRGB">
<feFlood flood-opacity="0" result="BackgroundImageFix"/>
<feColorMatrix in="SourceAlpha" type="matrix" values="0 0 0 0 0 0 0 0 0 0 0 0 0 0 0 0 0 0 127 0" result="hardAlpha"/>
<feOffset dx="-3" dy="3"/>
<feGaussianBlur stdDeviation="2"/>
<feComposite in2="hardAlpha" operator="out"/>
<feColorMatrix type="matrix" values="0 0 0 0 0 0 0 0 0 0 0 0 0 0 0 0 0 0 0.25 0"/>
<feBlend mode="normal" in2="BackgroundImageFix" result="effect1_dropShadow_1_170"/>
<feBlend mode="normal" in="SourceGraphic" in2="effect1_dropShadow_1_170" result="shape"/>
</filter>
<filter id="filter2_d_1_170" x="53.8367" y="3.47211" width="26.3265" height="25.6271" filterUnits="userSpaceOnUse" color-interpolation-filters="sRGB">
<feFlood flood-opacity="0" result="BackgroundImageFix"/>
<feColorMatrix in="SourceAlpha" type="matrix" values="0 0 0 0 0 0 0 0 0 0 0 0 0 0 0 0 0 0 127 0" result="hardAlpha"/>
<feOffset dx="-3" dy="3"/>
<feGaussianBlur stdDeviation="2"/>
<feComposite in2="hardAlpha" operator="out"/>
<feColorMatrix type="matrix" values="0 0 0 0 0 0 0 0 0 0 0 0 0 0 0 0 0 0 0.25 0"/>
<feBlend mode="normal" in2="BackgroundImageFix" result="effect1_dropShadow_1_170"/>
<feBlend mode="normal" in="SourceGraphic" in2="effect1_dropShadow_1_170" result="shape"/>
</filter>
<filter id="filter3_d_1_170" x="25.8367" y="3.47211" width="26.3265" height="25.6271" filterUnits="userSpaceOnUse" color-interpolation-filters="sRGB">
<feFlood flood-opacity="0" result="BackgroundImageFix"/>
<feColorMatrix in="SourceAlpha" type="matrix" values="0 0 0 0 0 0 0 0 0 0 0 0 0 0 0 0 0 0 127 0" result="hardAlpha"/>
<feOffset dx="-3" dy="3"/>
<feGaussianBlur stdDeviation="2"/>
<feComposite in2="hardAlpha" operator="out"/>
<feColorMatrix type="matrix" values="0 0 0 0 0 0 0 0 0 0 0 0 0 0 0 0 0 0 0.25 0"/>
<feBlend mode="normal" in2="BackgroundImageFix" result="effect1_dropShadow_1_170"/>
<feBlend mode="normal" in="SourceGraphic" in2="effect1_dropShadow_1_170" result="shape"/>
</filter>
<filter id="filter4_d_1_170" x="0.836731" y="3.47211" width="26.3265" height="25.6271" filterUnits="userSpaceOnUse" color-interpolation-filters="sRGB">
<feFlood flood-opacity="0" result="BackgroundImageFix"/>
<feColorMatrix in="SourceAlpha" type="matrix" values="0 0 0 0 0 0 0 0 0 0 0 0 0 0 0 0 0 0 127 0" result="hardAlpha"/>
<feOffset dx="-3" dy="3"/>
<feGaussianBlur stdDeviation="2"/>
<feComposite in2="hardAlpha" operator="out"/>
<feColorMatrix type="matrix" values="0 0 0 0 0 0 0 0 0 0 0 0 0 0 0 0 0 0 0.25 0"/>
<feBlend mode="normal" in2="BackgroundImageFix" result="effect1_dropShadow_1_170"/>
<feBlend mode="normal" in="SourceGraphic" in2="effect1_dropShadow_1_170" result="shape"/>
</filter>
</defs>
</svg>
