<svg width="443" height="751" viewBox="0 0 443 751" fill="none" xmlns="http://www.w3.org/2000/svg">
<path d="M0.0012207 7.11766C117.627 -14.3626 243.488 20.7385 333.907 112.176C479.337 259.245 478.008 496.361 330.94 641.791C240.572 731.152 116.205 765.102 0.00122287 743.879" stroke="#272727"/>
<path d="M0.00219727 670.051C97.345 692.319 203.642 665.856 279.905 590.443C398.469 473.2 399.54 282.04 282.297 163.476C206.033 86.3522 98.493 58.9426 0.00221147 81.4729" stroke="#272727"/>
<path d="M0.00317383 154.406C79.654 130.178 169.728 149.826 232.334 213.137C322.29 304.107 321.468 450.777 230.498 540.733C167.846 602.688 78.773 621.584 0.00317883 597.626" stroke="#272727"/>
<path d="M0 535.54C62.98 562.368 138.639 550.33 190.324 499.22C258.552 431.753 259.168 321.75 191.701 253.523C140.107 201.348 63.6387 188.712 7.97166e-06 215.826" stroke="#272727"/>
</svg>
