<svg width="818" height="720" viewBox="0 0 818 720" fill="none" xmlns="http://www.w3.org/2000/svg">
<path d="M308.277 0C127.719 71.4154 0 247.542 0 453.5C0 551.855 29.1266 643.406 79.2249 720H818V95.1309C774.232 54.7462 723.049 22.2781 666.723 0H308.277Z" fill="#131313"/>
<path d="M308.277 0C127.719 71.4154 0 247.542 0 453.5C0 551.855 29.1266 643.406 79.2249 720H818V95.1309C774.232 54.7462 723.049 22.2781 666.723 0H308.277Z" fill="url(#paint0_linear_1_3)" fill-opacity="0.05"/>
<path d="M818 649.241C802.981 674.851 785.105 698.584 764.809 720H202.191C136.373 650.548 96 556.739 96 453.5C96 239.49 269.49 66 483.5 66C626.107 66 750.721 143.034 818 257.759V649.241Z" fill="#151515"/>
<path d="M818 649.241C802.981 674.851 785.105 698.584 764.809 720H202.191C136.373 650.548 96 556.739 96 453.5C96 239.49 269.49 66 483.5 66C626.107 66 750.721 143.034 818 257.759V649.241Z" fill="url(#paint1_linear_1_3)" fill-opacity="0.05"/>
<path d="M614.924 720C715.009 671.378 784 568.746 784 450C784 284.315 649.685 150 484 150C318.315 150 184 284.315 184 450C184 568.746 252.991 671.378 353.076 720H614.924Z" fill="#171717"/>
<path d="M614.924 720C715.009 671.378 784 568.746 784 450C784 284.315 649.685 150 484 150C318.315 150 184 284.315 184 450C184 568.746 252.991 671.378 353.076 720H614.924Z" fill="url(#paint2_linear_1_3)" fill-opacity="0.05"/>
<path d="M696 450.5C696 567.861 600.861 663 483.5 663C366.139 663 271 567.861 271 450.5C271 333.139 366.139 238 483.5 238C600.861 238 696 333.139 696 450.5Z" fill="#191919"/>
<path d="M696 450.5C696 567.861 600.861 663 483.5 663C366.139 663 271 567.861 271 450.5C271 333.139 366.139 238 483.5 238C600.861 238 696 333.139 696 450.5Z" fill="url(#paint3_linear_1_3)" fill-opacity="0.05"/>
<path d="M817.5 95.3499V255.927C749.92 141.928 625.636 65.5 483.5 65.5C269.214 65.5 95.5 239.214 95.5 453.5C95.5 556.454 135.599 650.043 201.031 719.5H79.4954C29.5393 643.031 0.5 551.658 0.5 453.5C0.5 247.788 128.046 71.865 308.372 0.5H666.628C722.791 22.7268 773.835 55.0963 817.5 95.3499ZM350.921 719.5H202.406C136.76 650.152 96.5 556.528 96.5 453.5C96.5 239.766 269.766 66.5 483.5 66.5C625.873 66.5 750.291 143.381 817.5 257.895V649.105C802.551 674.575 784.772 698.185 764.594 719.5H617.08C716.282 670.42 784.5 568.177 784.5 450C784.5 284.038 649.962 149.5 484 149.5C318.038 149.5 183.5 284.038 183.5 450C183.5 568.177 251.718 670.42 350.921 719.5ZM765.969 719.5C785.546 698.719 802.854 675.779 817.5 651.073V719.5H765.969ZM783.5 450C783.5 568.507 714.672 670.938 614.809 719.5H353.191C253.328 670.938 184.5 568.507 184.5 450C184.5 284.591 318.591 150.5 484 150.5C649.409 150.5 783.5 284.591 783.5 450ZM695.5 450.5C695.5 567.584 600.584 662.5 483.5 662.5C366.416 662.5 271.5 567.584 271.5 450.5C271.5 333.416 366.416 238.5 483.5 238.5C600.584 238.5 695.5 333.416 695.5 450.5ZM483.5 663.5C601.137 663.5 696.5 568.137 696.5 450.5C696.5 332.863 601.137 237.5 483.5 237.5C365.863 237.5 270.5 332.863 270.5 450.5C270.5 568.137 365.863 663.5 483.5 663.5Z" stroke="white" stroke-opacity="0.09"/>
<path d="M817.5 95.3499V255.927C749.92 141.928 625.636 65.5 483.5 65.5C269.214 65.5 95.5 239.214 95.5 453.5C95.5 556.454 135.599 650.043 201.031 719.5H79.4954C29.5393 643.031 0.5 551.658 0.5 453.5C0.5 247.788 128.046 71.865 308.372 0.5H666.628C722.791 22.7268 773.835 55.0963 817.5 95.3499ZM350.921 719.5H202.406C136.76 650.152 96.5 556.528 96.5 453.5C96.5 239.766 269.766 66.5 483.5 66.5C625.873 66.5 750.291 143.381 817.5 257.895V649.105C802.551 674.575 784.772 698.185 764.594 719.5H617.08C716.282 670.42 784.5 568.177 784.5 450C784.5 284.038 649.962 149.5 484 149.5C318.038 149.5 183.5 284.038 183.5 450C183.5 568.177 251.718 670.42 350.921 719.5ZM765.969 719.5C785.546 698.719 802.854 675.779 817.5 651.073V719.5H765.969ZM783.5 450C783.5 568.507 714.672 670.938 614.809 719.5H353.191C253.328 670.938 184.5 568.507 184.5 450C184.5 284.591 318.591 150.5 484 150.5C649.409 150.5 783.5 284.591 783.5 450ZM695.5 450.5C695.5 567.584 600.584 662.5 483.5 662.5C366.416 662.5 271.5 567.584 271.5 450.5C271.5 333.416 366.416 238.5 483.5 238.5C600.584 238.5 695.5 333.416 695.5 450.5ZM483.5 663.5C601.137 663.5 696.5 568.137 696.5 450.5C696.5 332.863 601.137 237.5 483.5 237.5C365.863 237.5 270.5 332.863 270.5 450.5C270.5 568.137 365.863 663.5 483.5 663.5Z" stroke="#202020"/>
<defs>
<linearGradient id="paint0_linear_1_3" x1="563.5" y1="-72" x2="297" y2="769" gradientUnits="userSpaceOnUse">
<stop stop-color="white"/>
<stop offset="0.532089" stop-opacity="0.367865"/>
<stop offset="1" stop-opacity="0"/>
</linearGradient>
<linearGradient id="paint1_linear_1_3" x1="563.5" y1="-72" x2="297" y2="769" gradientUnits="userSpaceOnUse">
<stop stop-color="white"/>
<stop offset="0.532089" stop-opacity="0.367865"/>
<stop offset="1" stop-opacity="0"/>
</linearGradient>
<linearGradient id="paint2_linear_1_3" x1="563.5" y1="-72" x2="297" y2="769" gradientUnits="userSpaceOnUse">
<stop stop-color="white"/>
<stop offset="0.532089" stop-opacity="0.367865"/>
<stop offset="1" stop-opacity="0"/>
</linearGradient>
<linearGradient id="paint3_linear_1_3" x1="563.772" y1="195.5" x2="389.671" y2="679.093" gradientUnits="userSpaceOnUse">
<stop stop-color="white"/>
<stop offset="0.532089" stop-opacity="0.367865"/>
<stop offset="1" stop-opacity="0"/>
</linearGradient>
</defs>
</svg>
